<?xml version="1.0" encoding="UTF-8" standalone="no"?>
<svg
   xmlns:dc="http://purl.org/dc/elements/1.1/"
   xmlns:cc="http://creativecommons.org/ns#"
   xmlns:rdf="http://www.w3.org/1999/02/22-rdf-syntax-ns#"
   xmlns:svg="http://www.w3.org/2000/svg"
   xmlns="http://www.w3.org/2000/svg"
   xmlns:sodipodi="http://sodipodi.sourceforge.net/DTD/sodipodi-0.dtd"
   xmlns:inkscape="http://www.inkscape.org/namespaces/inkscape"
   id="svg4642"
   version="1.1"
   viewBox="0 0 29.419392 49.02248"
   height="49.02248mm"
   width="29.419392mm"
   sodipodi:docname="UI1.svg"
   inkscape:version="0.92.2 (5c3e80d, 2017-08-06)">
  <sodipodi:namedview
     pagecolor="#ffffff"
     bordercolor="#666666"
     borderopacity="1"
     objecttolerance="10"
     gridtolerance="10"
     guidetolerance="10"
     inkscape:pageopacity="0"
     inkscape:pageshadow="2"
     inkscape:window-width="1920"
     inkscape:window-height="1027"
     id="namedview4547"
     showgrid="false"
     inkscape:zoom="3.3638608"
     inkscape:cx="7.2050254"
     inkscape:cy="75.042447"
     inkscape:window-x="-8"
     inkscape:window-y="-8"
     inkscape:window-maximized="1"
     inkscape:current-layer="svg4642" />
  <defs
     id="defs4636" />
  <metadata
     id="metadata4639">
    <rdf:RDF>
      <cc:Work
         rdf:about="">
        <dc:format>image/svg+xml</dc:format>
        <dc:type
           rdf:resource="http://purl.org/dc/dcmitype/StillImage" />
        <dc:title />
      </cc:Work>
    </rdf:RDF>
  </metadata>
  <g
     id="layer1"
     transform="translate(-82.335317,-16.816291)">
    <text
       id="text5197"
       y="24.857143"
       x="86.178574"
       style="font-style:normal;font-weight:normal;font-size:10.58333302px;line-height:1.25;font-family:sans-serif;letter-spacing:0px;word-spacing:0px;fill:#000000;fill-opacity:1;stroke:none;stroke-width:0.26458332"
       xml:space="preserve"><tspan
         style="stroke-width:0.26458332"
         y="24.857143"
         x="86.178574"
         id="tspan5195">Play</tspan></text>
    <text
       id="text5201"
       y="65.678574"
       x="81.642853"
       style="font-style:normal;font-weight:normal;font-size:10.58333302px;line-height:1.25;font-family:sans-serif;letter-spacing:0px;word-spacing:0px;fill:#000000;fill-opacity:1;stroke:none;stroke-width:0.26458332"
       xml:space="preserve"><tspan
         style="stroke-width:0.26458332"
         y="65.678574"
         x="81.642853"
         id="tspan5199">Stand</tspan></text>
    <text
       id="text5205"
       y="45.267857"
       x="95.62059"
       style="font-style:normal;font-weight:normal;font-size:10.58333302px;line-height:1.25;font-family:sans-serif;letter-spacing:0px;word-spacing:0px;fill:#000000;fill-opacity:1;stroke:none;stroke-width:0.26458332"
       xml:space="preserve"><tspan
         style="text-align:center;text-anchor:middle;stroke-width:0.26458332"
         y="45.267857"
         x="95.62059"
         id="tspan5203">Hit</tspan></text>
  </g>
  <path
     style="fill:#88aa00;fill-opacity:1;stroke:#030000;stroke-width:0.22471367;stroke-miterlimit:4;stroke-dasharray:none;stroke-dashoffset:0;stroke-opacity:1"
     d="M 18.62048,15.734862 V 1.3169052 l 3.790288,0.00226 c 7.667881,0.00456 10.844338,0.8230831 13.009213,3.3522525 2.740929,3.2021592 2.433198,8.6269263 -0.66514,11.7252643 -2.210217,2.210217 -4.913625,3.054152 -9.783471,3.054152 h -2.78356 v 5.350995 5.350994 H 20.404145 18.62048 Z m 9.512879,0.428867 c 3.499066,-0.561058 5.350994,-2.597201 5.350994,-5.883267 0,-1.9407483 -0.541805,-3.2651821 -1.752474,-4.2838928 -1.315688,-1.1070785 -2.66369,-1.4060425 -6.348337,-1.407954 l -3.195732,-0.00166 v 5.9455498 5.945549 l 2.006622,-0.0023 c 1.103643,-0.0012 2.87616,-0.141672 3.938927,-0.312082 z"
     id="path818"
     inkscape:connector-curvature="0"
     transform="scale(0.26458334)" />
  <path
     style="fill:#88aa00;fill-opacity:1;stroke:#030000;stroke-width:0.22471367;stroke-miterlimit:4;stroke-dasharray:none;stroke-dashoffset:0;stroke-opacity:1"
     d="M 42.402677,15.140307 V 0.12779539 h 1.783665 1.783664 V 15.140307 30.152819 h -1.783664 -1.783665 z"
     id="path820"
     inkscape:connector-curvature="0"
     transform="scale(0.26458334)" />
  <path
     style="fill:#88aa00;fill-opacity:1;stroke:#030000;stroke-width:0.22471367;stroke-miterlimit:4;stroke-dasharray:none;stroke-dashoffset:0;stroke-opacity:1"
     d="m 55.631524,30.143789 c -3.990245,-1.945925 -5.031366,-7.590935 -1.990853,-10.794503 1.716142,-1.808174 4.597322,-2.67749 10.094449,-3.04572 l 3.11111,-0.208401 -0.160268,-1.194886 c -0.190346,-1.419136 -0.972444,-2.566846 -2.16285,-3.173928 -1.753645,-0.894323 -7.04764,-0.498375 -10.366951,0.775364 -0.379618,0.145673 -0.45694,-0.124922 -0.45694,-1.599086 v -1.77443 l 1.709345,-0.3507868 c 6.120966,-1.2561266 11.358977,-0.4161606 13.24489,2.1239468 1.294088,1.742989 1.396025,2.555015 1.396025,11.120691 v 8.130769 h -1.635026 -1.635026 v -1.040471 c 0,-0.572259 -0.08862,-1.040471 -0.196932,-1.040471 -0.108313,0 -0.816342,0.397474 -1.573399,0.883275 -2.035183,1.305974 -3.698008,1.793647 -6.070578,1.780377 -1.475955,-0.0083 -2.478305,-0.187611 -3.306996,-0.59174 z m 6.857745,-2.804697 c 0.806313,-0.239529 2.101455,-0.83857 2.878092,-1.331201 l 1.412068,-0.895694 v -3.127961 -3.12796 l -0.966152,0.0023 c -1.670435,0.0039 -5.807268,0.549269 -7.096595,0.935561 -0.680381,0.203847 -1.686323,0.794344 -2.235426,1.312215 -0.88338,0.833131 -0.998371,1.118999 -0.998371,2.481949 0,1.216301 0.607504,3.274398 0.973786,3.298983 0.03668,0.0025 0.601785,0.197252 1.255795,0.432868 1.538542,0.554279 2.955901,0.559911 4.776803,0.01898 z"
     id="path822"
     inkscape:connector-curvature="0"
     transform="scale(0.26458334)" />
  <path
     style="fill:#88aa00;fill-opacity:1;stroke:#030000;stroke-width:0.22471367;stroke-miterlimit:4;stroke-dasharray:none;stroke-dashoffset:0;stroke-opacity:1"
     d="m 79.958773,37.227604 c 0.229055,-0.539328 1.112392,-2.535528 1.962972,-4.436 L 83.468253,29.336201 79.255595,19.26548 C 76.938633,13.726583 74.981713,9.0944268 74.906884,8.9717999 74.832055,8.8491729 75.619435,8.7488418 76.656618,8.7488418 h 1.885786 l 3.257974,7.9051152 c 1.791886,4.347813 3.343139,7.95775 3.447229,8.022081 0.152973,0.09454 4.096682,-8.997851 6.360221,-14.663767 L 92.11257,8.7488418 h 1.751386 c 0.963263,0 1.751387,0.036369 1.751387,0.08082 0,0.044451 -2.796315,6.6328622 -6.214032,14.6409142 l -6.214032,14.560097 -1.822485,0.08876 -1.822485,0.08877 z"
     id="path824"
     inkscape:connector-curvature="0"
     transform="scale(0.26458334)" />
  <path
     style="fill:#88aa00;fill-opacity:1;stroke:#030000;stroke-width:0.22471367;stroke-miterlimit:4;stroke-dasharray:none;stroke-dashoffset:0;stroke-opacity:1"
     d="M 25.755139,93.027002 V 78.609045 h 1.783665 1.783665 v 5.648272 5.648272 h 7.431936 7.431937 v -5.648272 -5.648272 h 1.783664 1.783665 v 14.417957 14.417958 h -1.783665 -1.783664 v -7.13466 -7.134659 h -7.431937 -7.431936 v 7.134659 7.13466 h -1.783665 -1.783665 z"
     id="path826"
     inkscape:connector-curvature="0"
     transform="scale(0.26458334)" />
  <path
     style="fill:#88aa00;fill-opacity:1;stroke:#030000;stroke-width:0.22471367;stroke-miterlimit:4;stroke-dasharray:none;stroke-dashoffset:0;stroke-opacity:1"
     d="M 55.780163,96.594332 V 85.743705 h 1.635026 1.635026 v 10.850627 10.850628 h -1.635026 -1.635026 z"
     id="path828"
     inkscape:connector-curvature="0"
     transform="scale(0.26458334)" />
  <path
     style="fill:#88aa00;fill-opacity:1;stroke:#030000;stroke-width:0.22471367;stroke-miterlimit:4;stroke-dasharray:none;stroke-dashoffset:0;stroke-opacity:1"
     d="m 70.185821,107.18345 c -1.466136,-0.66597 -2.68533,-2.05921 -3.096033,-3.53801 -0.170448,-0.61372 -0.307781,-4.180393 -0.308701,-8.01726 l -0.0017,-6.911701 H 65.44168 64.103932 v -1.486387 -1.486387 h 1.337748 1.337749 v -3.121414 -3.121413 h 1.635026 1.635026 v 3.121413 3.121414 h 3.864607 3.864607 v 1.486387 1.486387 h -3.864607 -3.864607 l 0.0017,6.168507 c 0.0018,6.624644 0.214513,8.046734 1.377732,9.209954 0.683684,0.68368 0.898236,0.72668 3.022636,0.60582 1.257694,-0.0716 2.528411,-0.23636 2.823815,-0.36625 0.486149,-0.21375 0.528449,-0.0846 0.445916,1.36118 -0.08602,1.50673 -0.141781,1.60809 -0.983021,1.78677 -1.941377,0.41236 -5.326404,0.25789 -6.552403,-0.29901 z"
     id="path830"
     inkscape:connector-curvature="0"
     transform="scale(0.26458334)" />
  <path
     style="fill:#88aa00;fill-opacity:1;stroke:#030000;stroke-width:0.22471367;stroke-miterlimit:4;stroke-dasharray:none;stroke-dashoffset:0;stroke-opacity:1"
     d="m 55.482885,80.095433 v -1.783665 h 1.932304 1.932303 v 1.783665 1.783665 h -1.932303 -1.932304 z"
     id="path832"
     inkscape:connector-curvature="0"
     transform="scale(0.26458334)" />
  <path
     style="fill:#88aa00;fill-opacity:1;stroke:#030000;stroke-width:0.22471367;stroke-miterlimit:4;stroke-dasharray:none;stroke-dashoffset:0;stroke-opacity:1"
     d="m 68.265816,173.73783 v -10.70199 h 1.783665 1.783665 v 1.2034 1.20339 l 1.384102,-0.95229 c 1.921266,-1.32187 3.992098,-2.04935 5.828065,-2.04739 3.305096,0.004 5.26634,1.19256 6.490655,3.9351 0.667183,1.49453 0.702538,1.9236 0.808518,9.81232 l 0.110827,8.24945 h -1.793719 -1.79372 l -0.09205,-7.95217 c -0.08021,-6.92916 -0.159624,-8.07582 -0.617318,-8.91329 -0.715334,-1.3089 -1.919076,-1.86302 -4.047128,-1.86302 -1.471781,0 -2.152317,0.19256 -3.95369,1.11871 l -2.175904,1.11871 -0.07902,8.24553 -0.07902,8.24553 h -1.778963 -1.778962 z"
     id="path834"
     inkscape:connector-curvature="0"
     transform="scale(0.26458334)" />
  <path
     style="fill:#88aa00;fill-opacity:1;stroke:#030000;stroke-width:0.22471367;stroke-miterlimit:4;stroke-dasharray:none;stroke-dashoffset:0;stroke-opacity:1"
     d="m 97.238862,184.47595 c -1.740821,-0.79075 -3.556991,-2.99928 -4.265655,-5.18719 -2.161136,-6.67222 -0.01935,-13.55667 4.984561,-16.02209 1.922659,-0.94729 6.082132,-0.9628 8.113842,-0.0302 0.76412,0.35073 1.46644,0.56056 1.56071,0.46629 0.0943,-0.0943 0.1714,-2.22262 0.1714,-4.72966 v -4.55825 h 1.63502 1.63503 v 15.01251 15.01251 h -1.63503 c -1.59713,0 -1.63502,-0.0195 -1.63502,-0.84228 0,-1.17735 -0.25306,-1.31063 -1.20348,-0.63388 -0.45357,0.32297 -1.53886,0.9197 -2.41177,1.32606 -2.00518,0.93348 -5.120772,1.01696 -6.949608,0.18623 z m 8.039568,-3.60422 c 2.59768,-1.25751 2.52529,-1.03241 2.52529,-7.85227 0,-4.73083 -0.0878,-6.1191 -0.40371,-6.38126 -0.22205,-0.18428 -1.282,-0.55179 -2.35546,-0.81669 -4.66878,-1.15214 -7.867031,0.55725 -8.970731,4.79464 -1.09551,4.20595 0.02787,9.36233 2.312014,10.61226 1.642707,0.89893 4.616787,0.74502 6.892597,-0.35668 z"
     id="path836"
     inkscape:connector-curvature="0"
     transform="scale(0.26458334)" />
  <path
     style="fill:#88aa00;fill-opacity:1;stroke:#030000;stroke-width:0.22471367;stroke-miterlimit:4;stroke-dasharray:none;stroke-dashoffset:0;stroke-opacity:1"
     d="m 46.231501,184.20372 c -3.939944,-2.05825 -4.775887,-7.60105 -1.606102,-10.64942 1.757821,-1.69049 4.086725,-2.43008 9.030672,-2.86788 l 3.970097,-0.35157 -0.145839,-1.29388 c -0.09833,-0.87242 -0.413388,-1.57314 -0.967224,-2.15122 -1.565285,-1.6338 -5.731762,-1.87937 -9.948544,-0.58635 -1.062767,0.32588 -1.965747,0.59353 -2.006622,0.59478 -0.04088,0.001 -0.07432,-0.78523 -0.07432,-1.74773 v -1.75001 l 2.006623,-0.40525 c 1.103643,-0.2229 3.545034,-0.39968 5.425314,-0.39286 2.89539,0.0105 3.645646,0.11512 4.901375,0.6834 1.869194,0.8459 2.760107,1.663 3.455081,3.16881 0.491991,1.06599 0.549486,2.05857 0.555339,9.58719 l 0.0065,8.39809 h -1.635026 -1.635026 v -1.04047 c 0,-1.23878 -0.165489,-1.27181 -1.487075,-0.29677 -2.822864,2.08264 -7.059412,2.55648 -9.845252,1.10114 z m 7.042167,-2.57763 c 0.806313,-0.23952 2.101454,-0.83856 2.878092,-1.3312 l 1.412068,-0.89569 v -3.15952 -3.15952 l -2.749817,0.20035 c -6.425972,0.46821 -8.546727,1.71573 -8.546727,5.02755 0,3.02037 3.087084,4.48233 7.006384,3.31803 z"
     id="path838"
     inkscape:connector-curvature="0"
     transform="scale(0.26458334)" />
  <path
     style="fill:#88aa00;fill-opacity:1;stroke:#030000;stroke-width:0.22471367;stroke-miterlimit:4;stroke-dasharray:none;stroke-dashoffset:0;stroke-opacity:1"
     d="m 32.806925,184.62923 c -1.736927,-0.48798 -2.775693,-1.40305 -3.589628,-3.16218 -0.56111,-1.21271 -0.629653,-2.01158 -0.733305,-8.54673 l -0.114339,-7.20898 h -1.158618 -1.158618 v -1.33775 -1.33775 h 1.189109 1.18911 v -3.12141 -3.12141 h 1.783665 1.783665 v 3.12141 3.12141 h 3.715968 3.715968 v 1.33775 1.33775 h -3.715968 -3.715968 v 6.71814 c 0,7.68078 0.175564,8.47135 2.055695,9.25692 1.029819,0.43029 3.03888,0.38996 4.707367,-0.0945 0.630463,-0.18305 0.668874,-0.10871 0.668874,1.29463 0,1.70487 -0.01127,1.7117 -3.270052,1.9817 -1.198997,0.0993 -2.471427,0.009 -3.352925,-0.23901 z"
     id="path840"
     inkscape:connector-curvature="0"
     transform="scale(0.26458334)" />
  <path
     style="fill:#88aa00;fill-opacity:1;stroke:#030000;stroke-width:0.22471367;stroke-miterlimit:4;stroke-dasharray:none;stroke-dashoffset:0;stroke-opacity:1"
     d="m 6.3589984,184.72695 c -0.7759697,-0.13062 -2.4815991,-0.59408 -3.7902876,-1.02992 l -2.3794335,-0.79242 v -2.34375 -2.34375 l 1.2951207,0.87407 c 4.9028382,3.30888 12.187839,3.84032 15.477093,1.12904 1.669754,-1.37636 2.060427,-3.94892 0.882267,-5.80969 -0.706448,-1.11575 -2.434251,-1.75701 -7.335803,-2.72263 -4.9223658,-0.96972 -6.9079156,-1.73534 -8.2962849,-3.19902 -1.91886173,-2.02295 -2.4024635,-5.77869 -1.076116,-8.35732 0.9548984,-1.85647 3.1253099,-3.4844 5.7008107,-4.27594 3.3223092,-1.02106 9.3286502,-0.57622 13.3448222,0.98833 0.783053,0.30505 0.817513,0.40572 0.817513,2.38813 0,1.1383 -0.100331,2.02429 -0.222958,1.96885 -0.122627,-0.0554 -0.891833,-0.44941 -1.709346,-0.8755 -2.779267,-1.44855 -4.54809,-1.88095 -7.729214,-1.88944 -2.585996,-0.007 -3.166108,0.0888 -4.4587322,0.73525 -2.5826524,1.2917 -3.4800956,3.60377 -2.303868,5.93543 0.7760286,1.53834 1.9742595,2.05127 7.2976012,3.12389 8.099842,1.63206 10.237801,3.3013 10.290106,8.03413 0.04433,4.01153 -3.020436,7.36764 -7.71626,8.44977 -1.52989,0.35256 -6.0255963,0.3595 -8.0870306,0.0125 z"
     id="path842"
     inkscape:connector-curvature="0"
     transform="scale(0.26458334)" />
</svg>
